<svg width="24" height="25" viewBox="0 0 24 25" fill="none" xmlns="http://www.w3.org/2000/svg">
<mask id="mask0_26_22" style="mask-type:alpha" maskUnits="userSpaceOnUse" x="0" y="0" width="24" height="25">
<rect y="0.5" width="24" height="24" fill="#D9D9D9"/>
</mask>
<g mask="url(#mask0_26_22)">
<path d="M7.16978 22.475C6.67327 22.475 6.25002 22.2983 5.90002 21.9447C5.55002 21.5912 5.37502 21.1663 5.37502 20.6698C5.37502 20.1733 5.55177 19.75 5.90527 19.4C6.25877 19.05 6.68377 18.875 7.18027 18.875C7.67677 18.875 8.10003 19.0518 8.45003 19.4053C8.80002 19.7588 8.97503 20.1838 8.97503 20.6803C8.97503 21.1768 8.79827 21.6 8.44478 21.95C8.09128 22.3 7.66628 22.475 7.16978 22.475ZM17.1698 22.475C16.6733 22.475 16.25 22.2983 15.9 21.9447C15.55 21.5912 15.375 21.1663 15.375 20.6698C15.375 20.1733 15.5518 19.75 15.9053 19.4C16.2588 19.05 16.6838 18.875 17.1803 18.875C17.6768 18.875 18.1 19.0518 18.45 19.4053C18.8 19.7588 18.975 20.1838 18.975 20.6803C18.975 21.1768 18.7983 21.6 18.4448 21.95C18.0913 22.3 17.6663 22.475 17.1698 22.475ZM5.87502 5.975L8.62503 11.675H15.825L18.95 5.975H5.87502ZM5.12502 4.475H19.8518C20.2346 4.475 20.5259 4.65 20.7255 5C20.9252 5.35 20.925 5.7 20.725 6.05L17.35 12.125C17.1667 12.4417 16.9287 12.6958 16.636 12.8875C16.3434 13.0792 16.023 13.175 15.675 13.175H8.10003L6.70003 15.775H18.225C18.4375 15.775 18.6157 15.8473 18.7595 15.992C18.9032 16.1365 18.975 16.3157 18.975 16.5295C18.975 16.7432 18.9032 16.9208 18.7595 17.0625C18.6157 17.2042 18.4375 17.275 18.225 17.275H6.92502C6.22503 17.275 5.72086 17.0417 5.41252 16.575C5.10419 16.1083 5.10836 15.5833 5.42502 15L7.02502 12.05L3.22502 4H2.02502C1.81252 4 1.63444 3.92767 1.49077 3.783C1.34694 3.6385 1.27502 3.45933 1.27502 3.2455C1.27502 3.03183 1.34694 2.85417 1.49077 2.7125C1.63444 2.57083 1.81252 2.5 2.02502 2.5H3.72502C3.87502 2.5 4.01002 2.53692 4.13002 2.61075C4.25002 2.68475 4.34002 2.7895 4.40002 2.925L5.12502 4.475Z" fill="#FFF5DF"/>
</g>
</svg>
